<?xml version="1.0" standalone="no"?>
<!DOCTYPE svg PUBLIC "-//W3C//DTD SVG 20010904//EN"
 "http://www.w3.org/TR/2001/REC-SVG-20010904/DTD/svg10.dtd">
<svg version="1.0" xmlns="http://www.w3.org/2000/svg"
 width="128.000000pt" height="128.000000pt" viewBox="0 0 128.000000 128.000000"
 preserveAspectRatio="xMidYMid meet">

<g transform="translate(0.000000,128.000000) scale(0.100000,-0.100000)"
fill="#000000" stroke="none">
<path d="M54 1270 c-55 -22 -54 -15 -54 -533 l0 -478 25 -24 c20 -21 34 -25
85 -25 44 0 60 4 60 14 0 9 -17 15 -56 18 -64 5 -74 15 -74 76 l0 42 340 0
c267 0 340 -3 340 -13 0 -7 -10 -17 -22 -22 -17 -7 -24 -20 -26 -47 l-3 -38
-210 0 c-177 0 -209 -2 -209 -15 0 -11 20 -15 98 -17 l97 -3 3 -33 c3 -31 3
-32 -38 -32 -53 0 -90 -34 -90 -83 0 -18 5 -38 12 -45 9 -9 91 -12 310 -12
292 0 297 0 309 21 15 29 3 85 -24 104 -12 8 -38 15 -59 15 -21 0 -38 4 -38
10 0 6 72 11 183 12 178 3 182 3 192 26 5 12 18 25 28 28 45 14 47 34 47 533
l0 470 -24 28 -24 28 -579 2 c-318 1 -588 -2 -599 -7z m1174 -42 c7 -7 12 -43
12 -90 l0 -78 -600 0 -600 0 0 78 c0 47 5 83 12 90 17 17 1159 17 1176 0z m12
-518 c0 -264 -2 -310 -15 -310 -10 0 -15 16 -17 63 -3 56 -5 62 -25 65 -32 5
-30 38 2 46 24 6 25 10 25 76 0 58 -3 71 -19 80 -28 15 -116 13 -130 -3 -17
-21 -3 -27 61 -27 l58 0 0 -45 0 -45 -235 0 -235 0 0 45 0 45 131 0 c119 0
130 2 127 18 -3 15 -19 17 -131 20 -165 3 -169 1 -165 -86 3 -58 6 -68 26 -77
12 -5 22 -17 22 -25 0 -8 -10 -20 -22 -25 -19 -8 -23 -19 -26 -67 l-3 -58
-314 0 -315 0 0 310 0 310 600 0 600 0 0 -310z m-112 -157 c-3 -16 -21 -18
-186 -21 -177 -2 -182 -2 -182 18 0 19 6 20 186 20 171 0 185 -1 182 -17z m50
-105 l-3 -43 -232 -3 -233 -2 0 45 0 45 236 0 235 0 -3 -42z m-50 -100 c3 -17
-11 -18 -182 -18 -180 0 -186 1 -186 20 0 20 5 20 182 18 165 -3 183 -5 186
-20z m110 -35 c-3 -52 -25 -71 -30 -26 -2 17 -11 32 -25 38 -37 16 -28 35 18
35 l40 0 -3 -47z m-58 -68 l0 -45 -235 0 -235 0 0 45 0 45 235 0 235 0 0 -45z
m-505 -57 c8 -19 19 -24 63 -26 28 -2 52 -7 52 -13 0 -5 -64 -9 -155 -9 l-155
0 0 28 c0 16 3 32 7 35 3 4 45 7 92 7 80 0 87 -2 96 -22z m233 -100 c7 -7 12
-20 12 -30 0 -17 -17 -18 -280 -18 -296 0 -291 -1 -274 44 5 14 38 16 268 16
190 0 265 -3 274 -12z"/>
<path d="M94 1175 c-15 -23 -15 -27 0 -50 18 -27 63 -34 84 -13 15 15 15 61 0
76 -21 21 -66 14 -84 -13z m56 -19 c0 -8 -4 -17 -9 -21 -12 -7 -24 12 -16 25
9 15 25 12 25 -4z"/>
<path d="M234 1175 c-15 -23 -15 -27 0 -50 18 -27 63 -34 84 -13 15 15 15 61
0 76 -21 21 -66 14 -84 -13z m56 -19 c0 -8 -4 -17 -9 -21 -12 -7 -24 12 -16
25 9 15 25 12 25 -4z"/>
<path d="M374 1175 c-15 -23 -15 -27 0 -50 11 -17 26 -25 44 -25 35 0 52 16
52 50 0 34 -17 50 -52 50 -18 0 -33 -8 -44 -25z m56 -19 c0 -8 -4 -17 -9 -21
-12 -7 -24 12 -16 25 9 15 25 12 25 -4z"/>
<path d="M116 921 l-38 -38 32 -37 c18 -20 41 -36 51 -36 25 0 24 13 -5 47
l-25 28 26 27 c22 23 25 48 4 48 -4 0 -24 -17 -45 -39z"/>
<path d="M217 892 c-32 -80 -32 -82 -9 -82 12 0 24 18 40 58 25 66 28 92 9 92
-8 0 -26 -30 -40 -68z"/>
<path d="M286 951 c-4 -5 6 -23 20 -41 l27 -31 -28 -29 c-25 -26 -26 -30 -11
-36 13 -5 29 4 54 29 l36 37 -39 40 c-40 41 -50 46 -59 31z"/>
<path d="M422 897 c-17 -20 -5 -27 45 -27 37 0 44 3 41 18 -4 22 -70 29 -86 9z"/>
<path d="M561 901 c-7 -5 -10 -14 -7 -20 5 -7 74 -11 217 -11 172 0 209 2 209
14 0 8 -7 17 -16 20 -25 9 -387 7 -403 -3z"/>
<path d="M417 814 c-16 -17 10 -24 84 -24 64 0 79 3 79 15 0 12 -15 15 -78 15
-43 0 -82 -3 -85 -6z"/>
<path d="M617 813 c-16 -16 -4 -23 38 -23 33 0 45 4 45 15 0 11 -11 15 -38 15
-21 0 -42 -3 -45 -7z"/>
<path d="M730 805 c0 -12 17 -15 95 -15 78 0 95 3 95 15 0 12 -17 15 -95 15
-78 0 -95 -3 -95 -15z"/>
<path d="M95 720 c-3 -5 0 -13 8 -16 23 -9 152 0 152 11 0 14 -151 19 -160 5z"/>
<path d="M290 715 c0 -13 17 -15 128 -13 167 4 165 22 -3 26 -108 2 -125 0
-125 -13z"/>
<path d="M740 656 c0 -17 22 -26 60 -26 38 0 60 9 60 26 0 10 -15 14 -60 14
-45 0 -60 -4 -60 -14z"/>
<path d="M894 659 c-7 -12 12 -29 32 -29 15 0 36 25 27 33 -10 11 -51 8 -59
-4z"/>
<path d="M987 663 c-4 -3 -2 -12 4 -20 15 -18 133 -18 148 0 17 22 3 27 -74
27 -39 0 -75 -3 -78 -7z"/>
<path d="M97 644 c-13 -14 6 -24 44 -24 28 0 39 4 39 15 0 11 -11 15 -38 15
-21 0 -42 -3 -45 -6z"/>
<path d="M217 644 c-17 -17 12 -24 99 -24 77 0 94 3 94 15 0 12 -17 15 -93 15
-52 0 -97 -3 -100 -6z"/>
<path d="M447 644 c-12 -12 4 -24 34 -24 19 0 29 5 29 15 0 15 -50 22 -63 9z"/>
<path d="M540 635 c0 -11 12 -15 45 -15 33 0 45 4 45 15 0 11 -12 15 -45 15
-33 0 -45 -4 -45 -15z"/>
<path d="M107 573 c-4 -3 -7 -12 -7 -20 0 -9 16 -13 58 -13 64 0 78 6 61 27
-12 13 -100 19 -112 6z"/>
<path d="M263 573 c-7 -2 -13 -11 -13 -19 0 -11 18 -14 80 -14 62 0 80 3 80
14 0 8 -7 17 -16 20 -18 7 -113 7 -131 -1z"/>
<path d="M453 573 c-7 -2 -13 -11 -13 -19 0 -11 20 -14 94 -14 92 0 126 11 95
31 -15 9 -155 11 -176 2z"/>
<path d="M747 464 c-4 -4 -7 -13 -7 -21 0 -9 17 -13 61 -13 52 0 60 2 57 18
-2 13 -15 18 -53 20 -28 2 -54 0 -58 -4z"/>
<path d="M895 461 c-10 -17 4 -31 31 -31 19 0 25 5 22 18 -4 19 -43 29 -53 13z"/>
<path d="M985 460 c-13 -21 9 -30 79 -30 77 0 88 4 79 26 -6 17 -148 20 -158
4z"/>
<path d="M740 245 c0 -12 13 -15 60 -15 47 0 60 3 60 15 0 12 -13 15 -60 15
-47 0 -60 -3 -60 -15z"/>
<path d="M890 245 c0 -12 8 -16 33 -13 17 2 32 8 32 13 0 6 -15 11 -32 13 -25
3 -33 -1 -33 -13z"/>
<path d="M985 250 c-3 -5 0 -13 8 -16 23 -9 152 0 152 11 0 14 -151 19 -160 5z"/>
</g>
</svg>
