<?xml version="1.0" standalone="no"?>
<!DOCTYPE svg PUBLIC "-//W3C//DTD SVG 20010904//EN"
 "http://www.w3.org/TR/2001/REC-SVG-20010904/DTD/svg10.dtd">
<svg version="1.0" xmlns="http://www.w3.org/2000/svg"
 width="128.000000pt" height="128.000000pt" viewBox="0 0 128.000000 128.000000"
 preserveAspectRatio="xMidYMid meet">

<g transform="translate(0.000000,128.000000) scale(0.100000,-0.100000)"
fill="#000000" stroke="none">
<path d="M906 1245 c-48 -25 -55 -43 -56 -131 0 -89 14 -116 71 -136 24 -8 29
-15 29 -44 0 -52 24 -54 73 -6 39 37 46 40 110 44 57 3 72 8 95 31 25 26 27
33 27 112 0 79 -2 86 -28 112 -27 27 -30 28 -160 31 -104 2 -138 -1 -161 -13z
m289 -50 c21 -20 25 -34 25 -80 0 -46 -4 -60 -25 -80 -20 -21 -33 -25 -88 -25
-55 0 -67 -3 -88 -26 l-24 -26 -5 23 c-4 17 -16 25 -40 30 -47 10 -60 32 -60
106 0 96 10 103 160 103 115 0 122 -1 145 -25z"/>
<path d="M930 1160 c0 -19 6 -20 126 -20 114 0 125 2 122 18 -3 15 -18 17
-126 20 -117 2 -122 2 -122 -18z"/>
<path d="M970 1070 c0 -13 7 -20 20 -20 13 0 20 7 20 20 0 13 -7 20 -20 20
-13 0 -20 -7 -20 -20z"/>
<path d="M1050 1070 c0 -13 7 -20 20 -20 13 0 20 7 20 20 0 13 -7 20 -20 20
-13 0 -20 -7 -20 -20z"/>
<path d="M1140 1069 c0 -14 5 -19 17 -17 26 5 29 38 4 38 -15 0 -21 -6 -21
-21z"/>
<path d="M594 1186 c-51 -22 -76 -63 -72 -116 3 -25 8 -53 12 -62 7 -16 2 -18
-51 -18 -58 0 -59 0 -118 60 -33 33 -67 60 -75 60 -17 0 -80 -60 -80 -76 0 -5
39 -48 88 -96 86 -86 88 -87 142 -90 l55 -3 0 -60 0 -60 -82 -3 -83 -3 0 27
c0 15 7 36 16 46 14 14 15 20 4 33 -21 26 -60 -18 -60 -67 0 -32 -3 -38 -20
-38 -19 0 -21 -5 -18 -57 3 -55 4 -58 31 -61 l27 -3 0 -82 c0 -81 -1 -82 -30
-99 -17 -10 -37 -32 -45 -50 -11 -26 -14 -29 -15 -11 0 33 -55 73 -99 73 -72
0 -119 -77 -87 -142 15 -30 15 -33 -6 -56 -20 -21 -23 -34 -23 -115 l0 -92
635 0 635 0 0 92 c0 81 -3 94 -23 115 -21 23 -21 26 -6 56 32 65 -15 142 -87
142 -44 0 -99 -40 -99 -73 -1 -18 -4 -15 -15 11 -8 18 -28 40 -45 50 -29 17
-30 18 -30 99 l0 82 28 3 c26 3 27 6 30 61 3 52 1 57 -18 57 -17 0 -20 6 -20
38 0 49 -39 93 -60 67 -11 -13 -10 -19 4 -33 9 -10 16 -31 16 -45 0 -25 -3
-27 -39 -27 l-39 0 -4 99 c-4 120 -20 150 -87 165 -32 8 -40 13 -35 25 4 9 9
36 12 61 4 54 -21 94 -74 116 -41 17 -50 17 -90 0z m104 -59 c39 -36 26 -98
-26 -126 -74 -39 -151 70 -89 126 41 38 73 38 115 0z m-348 -122 l54 -55 192
0 c236 0 229 4 229 -134 l0 -91 -30 0 -30 0 -3 73 c-3 64 -5 72 -22 72 -18 0
-20 -7 -20 -75 l0 -75 -90 0 -90 0 0 73 c0 43 -5 78 -12 85 -7 7 -39 12 -73
12 l-61 0 -68 69 c-59 60 -68 72 -56 85 7 9 15 16 19 16 4 0 31 -25 61 -55z
m640 -345 c0 -20 -7 -20 -350 -20 -343 0 -350 0 -350 20 0 20 7 20 350 20 343
0 350 0 350 -20z m-60 -142 c0 -82 -1 -83 -30 -100 -17 -10 -37 -32 -45 -50
-11 -26 -14 -29 -15 -11 0 33 -55 73 -99 73 -41 0 -91 -36 -91 -65 0 -8 -4
-15 -10 -15 -5 0 -10 7 -10 15 0 29 -50 65 -91 65 -44 0 -99 -40 -99 -73 -1
-18 -4 -15 -15 11 -8 18 -28 40 -45 50 -29 17 -30 18 -30 100 l0 82 290 0 290
0 0 -82z m-766 -144 c34 -34 8 -104 -39 -104 -29 0 -53 20 -60 52 -13 51 61
90 99 52z m208 -1 c22 -20 23 -61 1 -85 -34 -38 -103 -11 -103 40 0 54 62 81
102 45z m208 -3 c11 -11 20 -29 20 -40 0 -26 -34 -60 -62 -60 -50 0 -76 63
-41 102 21 24 58 23 83 -2z m202 3 c37 -33 11 -103 -39 -103 -28 0 -63 33 -63
60 0 26 34 60 62 60 12 0 30 -7 40 -17z m210 0 c38 -34 11 -103 -40 -103 -54
0 -81 62 -45 102 20 22 61 23 85 1z m209 -4 c35 -35 6 -99 -45 -99 -29 0 -56
29 -56 61 0 56 60 79 101 38z m-957 -129 c-12 -12 -16 -12 -31 3 -13 13 -14
20 -5 29 7 7 12 21 12 32 0 16 5 12 19 -14 16 -30 17 -37 5 -50z m202 2 c-12
-12 -18 -13 -30 -3 -13 11 -13 16 2 45 l17 33 13 -30 c11 -26 10 -33 -2 -45z
m418 -2 c-12 -12 -16 -12 -29 1 -12 12 -13 20 -3 46 l12 31 17 -32 c15 -27 15
-33 3 -46z m209 32 c16 -20 -17 -50 -37 -33 -13 11 -13 16 2 46 12 23 18 28
21 17 2 -10 8 -23 14 -30z m-415 11 c10 -23 10 -30 -3 -42 -13 -14 -17 -14
-30 0 -13 12 -13 19 -3 42 7 15 15 27 18 27 3 0 11 -12 18 -27z m-477 -72 c19
-15 24 -30 27 -85 l4 -66 -86 0 -86 0 0 60 c0 51 4 65 25 85 30 30 83 33 116
6z m216 -7 c7 -10 13 -45 13 -81 l0 -63 -80 0 -80 0 0 63 c0 88 20 110 95 102
22 -2 45 -11 52 -21z m197 5 c23 -18 26 -27 26 -85 l0 -65 -82 3 -83 3 -3 46
c-2 25 2 57 7 72 18 48 90 62 135 26z m215 -4 c11 -11 16 -34 16 -78 l0 -62
-82 -3 -83 -3 0 65 c0 59 3 67 28 86 31 25 93 23 121 -5z m208 -1 c7 -10 13
-45 13 -81 l0 -63 -80 0 -80 0 0 63 c0 88 20 110 95 102 22 -2 45 -11 52 -21z
m198 1 c21 -20 25 -34 25 -85 l0 -60 -86 0 -86 0 4 66 c3 55 8 70 27 85 33 27
86 24 116 -6z"/>
<path d="M620 890 c0 -13 7 -20 20 -20 13 0 20 7 20 20 0 13 -7 20 -20 20 -13
0 -20 -7 -20 -20z"/>
</g>
</svg>
