<?xml version="1.0" standalone="no"?>
<!DOCTYPE svg PUBLIC "-//W3C//DTD SVG 20010904//EN"
 "http://www.w3.org/TR/2001/REC-SVG-20010904/DTD/svg10.dtd">
<svg version="1.0" xmlns="http://www.w3.org/2000/svg"
 width="128.000000pt" height="128.000000pt" viewBox="0 0 128.000000 128.000000"
 preserveAspectRatio="xMidYMid meet">

<g transform="translate(0.000000,128.000000) scale(0.100000,-0.100000)"
fill="#000000" stroke="none">
<path d="M440 1262 c-19 -9 -45 -33 -58 -52 -21 -31 -23 -44 -20 -122 3 -86 4
-89 39 -124 29 -29 46 -37 90 -42 39 -5 55 -12 57 -24 3 -13 -6 -17 -40 -20
-30 -2 -43 -7 -43 -18 0 -13 34 -16 225 -20 l225 -5 3 -137 c3 -136 2 -138
-20 -143 -13 -3 -138 -4 -278 -3 l-255 3 -3 142 -3 142 28 3 c34 4 38 32 5 36
-27 4 -72 -22 -72 -42 0 -10 -12 -12 -48 -8 -41 4 -51 1 -75 -23 l-27 -28 0
-212 0 -212 26 -27 c19 -18 37 -26 61 -26 72 0 103 49 103 163 l0 57 40 0 c33
0 40 -3 40 -20 0 -11 -4 -20 -9 -20 -5 0 -17 -7 -25 -16 -23 -23 -22 -137 2
-160 9 -10 22 -31 27 -48 13 -40 29 -40 33 1 3 33 4 33 58 33 l54 0 0 -113 c0
-122 -5 -137 -51 -137 -37 0 -59 33 -59 87 0 46 -11 61 -30 38 -8 -10 -10 -31
-5 -65 13 -94 105 -131 163 -65 20 24 22 36 22 141 0 90 3 114 14 114 10 0 14
-27 18 -116 l4 -117 34 -30 c27 -24 38 -28 69 -23 21 3 45 16 59 31 20 24 22
36 22 137 0 106 1 111 25 130 22 17 25 27 25 82 0 63 -17 96 -49 96 -7 0 -11
8 -9 18 2 12 15 18 46 20 l42 3 0 -66 c0 -74 18 -128 48 -144 34 -18 79 -13
109 13 l28 24 0 154 c0 129 -2 153 -15 153 -10 0 -16 -12 -18 -37 l-3 -38 -55
0 -54 0 0 88 c0 99 11 124 53 124 36 1 55 -17 59 -55 5 -50 33 -43 32 7 -2 58
-42 90 -101 83 -24 -2 -43 -1 -43 4 0 5 -9 18 -20 29 -17 17 -33 20 -116 20
-86 0 -95 2 -92 18 2 12 16 18 50 22 98 12 141 72 136 192 -4 87 -21 121 -79
150 -28 15 -62 18 -199 18 -137 0 -171 -3 -200 -18z m385 -34 c39 -18 55 -57
55 -137 0 -64 -2 -72 -31 -100 l-31 -31 -180 0 -180 0 -29 29 c-27 28 -29 34
-29 109 0 76 2 82 31 111 l31 31 168 0 c110 0 178 -4 195 -12z m-127 -330 c3
-16 -5 -18 -57 -18 -44 0 -61 4 -61 13 0 23 13 28 65 25 38 -2 51 -7 53 -20z
m-388 -138 c5 -10 10 -55 10 -99 l0 -81 -55 0 -56 0 3 97 c3 92 4 98 27 110
28 13 55 4 71 -27z m10 -250 c0 -30 -1 -30 -55 -30 -54 0 -55 0 -55 30 0 30 1
30 55 30 54 0 55 0 55 -30z m750 0 c0 -30 -1 -30 -55 -30 -54 0 -55 0 -55 30
0 30 1 30 55 30 54 0 55 0 55 -30z m-280 -10 c0 -19 -7 -20 -155 -20 -122 0
-155 3 -155 13 0 8 3 17 7 20 3 4 73 7 155 7 141 0 148 -1 148 -20z m-470 -90
c0 -39 -41 -83 -67 -73 -34 12 -43 25 -43 64 l0 39 55 0 c55 0 55 0 55 -30z
m190 20 c0 -6 11 -22 25 -35 22 -22 32 -25 104 -25 80 0 80 0 108 35 23 29 35
35 66 35 l37 0 0 -55 0 -55 -210 0 -210 0 0 55 0 55 40 0 c22 0 40 -5 40 -10z
m201 -10 c-16 -14 -38 -20 -71 -20 -33 0 -55 6 -71 20 l-24 19 95 0 95 0 -24
-19z m359 -19 c0 -44 -17 -63 -57 -63 -33 0 -53 26 -53 69 l0 33 55 0 55 0 0
-39z m-270 -224 c0 -122 -5 -137 -51 -137 -47 0 -59 30 -59 147 l0 103 55 0
55 0 0 -113z"/>
<path d="M484 1176 c-59 -26 -66 -103 -12 -140 54 -38 128 4 128 74 0 23 -38
67 -65 74 -11 3 -34 -1 -51 -8z m57 -36 c37 -20 18 -80 -26 -80 -42 0 -59 44
-29 74 18 19 28 20 55 6z"/>
<path d="M740 1183 c-62 -23 -80 -96 -34 -138 54 -50 134 -14 134 60 0 33 -27
75 -49 75 -5 0 -15 2 -23 4 -7 3 -20 2 -28 -1z m55 -53 c15 -17 16 -24 7 -45
-20 -43 -82 -28 -82 20 0 45 44 59 75 25z"/>
<path d="M430 787 c-19 -10 -25 -20 -25 -47 0 -54 21 -60 240 -60 213 0 235 6
235 60 0 54 -22 60 -235 60 -133 0 -197 -4 -215 -13z m415 -47 c0 -13 -29 -15
-194 -18 -111 -1 -199 2 -204 7 -26 26 9 31 201 29 167 -3 197 -5 197 -18z"/>
</g>
</svg>
