<?xml version="1.0" standalone="no"?>
<!DOCTYPE svg PUBLIC "-//W3C//DTD SVG 20010904//EN"
 "http://www.w3.org/TR/2001/REC-SVG-20010904/DTD/svg10.dtd">
<svg version="1.0" xmlns="http://www.w3.org/2000/svg"
 width="128.000000pt" height="128.000000pt" viewBox="0 0 128.000000 128.000000"
 preserveAspectRatio="xMidYMid meet">

<g transform="translate(0.000000,128.000000) scale(0.100000,-0.100000)"
fill="#000000" stroke="none">
<path d="M137 1243 c-4 -3 -7 -164 -7 -357 l0 -352 -65 -194 c-73 -219 -78
-258 -39 -289 26 -21 35 -21 614 -21 579 0 588 0 614 21 39 31 34 71 -36 274
l-62 180 -6 370 -5 370 -501 3 c-275 1 -504 -1 -507 -5z m971 -370 l2 -333
-470 0 -470 0 0 328 c0 181 3 332 7 335 3 4 214 6 467 5 l461 -3 3 -332z m64
-543 l56 -170 -588 0 -588 0 56 170 57 170 475 0 475 0 57 -170z m68 -225 c0
-8 -9 -19 -19 -25 -27 -14 -1135 -14 -1162 0 -10 6 -19 17 -19 25 0 13 80 15
600 15 520 0 600 -2 600 -15z"/>
<path d="M215 1147 c-3 -7 -4 -134 -3 -282 l3 -270 425 0 425 0 0 280 0 280
-423 3 c-335 2 -424 0 -427 -11z m805 -272 l0 -245 -380 0 -380 0 0 245 0 245
380 0 380 0 0 -245z"/>
<path d="M730 930 c0 -13 7 -20 20 -20 13 0 20 7 20 20 0 13 -7 20 -20 20 -13
0 -20 -7 -20 -20z"/>
<path d="M770 840 c0 -13 7 -20 20 -20 13 0 20 7 20 20 0 13 -7 20 -20 20 -13
0 -20 -7 -20 -20z"/>
<path d="M486 348 c-32 -50 -59 -117 -53 -132 6 -14 32 -16 207 -16 236 0 232
-2 179 99 l-34 66 -142 3 c-138 2 -143 2 -157 -20z m287 -53 c9 -20 17 -38 17
-40 0 -3 -67 -5 -150 -5 -82 0 -150 2 -150 5 0 2 8 20 17 40 l17 35 116 0 116
0 17 -35z"/>
</g>
</svg>
